<svg id="Layer_1" data-name="Layer 1" xmlns="http://www.w3.org/2000/svg" xmlns:xlink="http://www.w3.org/1999/xlink" viewBox="0 0 1130.62 771.59"><defs><linearGradient id="linear-gradient" x1="53.48" y1="347.59" x2="1069.51" y2="347.59" gradientUnits="userSpaceOnUse"><stop offset="0" stop-color="#fff"/><stop offset="1" stop-color="#fbb03b"/></linearGradient><linearGradient id="linear-gradient-2" x1="50.09" y1="733.46" x2="1150.17" y2="733.46" gradientUnits="userSpaceOnUse"><stop offset="0" stop-color="#fff"/><stop offset="1" stop-color="#fff"/></linearGradient><clipPath id="clip-path" transform="translate(-34.82 -23)"><circle id="SVGID" cx="346.15" cy="422.43" r="124.74" style="fill:none"/></clipPath><clipPath id="clip-path-2" transform="translate(-34.82 -23)"><path id="SVGID-2" data-name="SVGID" d="M422.86,541.06s-73.5,56.79-153.89-.43l-17.58,25.72s-12,17.14,8.15,22.72h174s16.29-3.86,9-20.58Z" style="fill:none"/></clipPath></defs><title>both</title><rect x="53.48" y="15.27" width="1016.03" height="664.63" style="stroke:#000;stroke-miterlimit:10;stroke-width:10px;fill:url(#linear-gradient)"/><path d="M1119.6,718.25H73V23H1119.6Zm-1016-30.62H1089V53.55H103.57Z" transform="translate(-34.82 -23)" style="fill:#191919"/><path d="M50.09,687.63s0,91.66,91.69,91.66h916.7c91.69,0,91.69-91.66,91.69-91.66Z" transform="translate(-34.82 -23)" style="stroke:#000;stroke-miterlimit:10;stroke-width:10px;fill:url(#linear-gradient-2)"/><path d="M1058.48,794.59H141.78c-84.6,0-107-70-107-107V672.36H1165.44v15.27C1165.44,724.62,1143.08,794.59,1058.48,794.59ZM67,702.91C71.24,725.53,86.55,764,141.78,764h916.7c55.18,0,70.63-38.49,74.8-61.11Z" transform="translate(-34.82 -23)" style="fill:#191919"/><g style="clip-path:url(#clip-path)"><path d="M221.41,297.69v0Z" transform="translate(-34.82 -23)" style="fill:#fff"/><rect x="186.59" y="274.69" width="1.27" height="249.48" style="fill:#fff"/><rect x="187.86" y="274.69" width="1.27" height="249.48" style="fill:#fffffe"/><rect x="189.14" y="274.69" width="1.27" height="249.48" style="fill:#fffefd"/><rect x="190.41" y="274.69" width="1.27" height="249.48" style="fill:#fffefc"/><rect x="191.68" y="274.69" width="1.27" height="249.48" style="fill:#fffdfb"/><rect x="192.96" y="274.69" width="1.27" height="249.48" style="fill:#fffdfa"/><rect x="194.23" y="274.69" width="1.27" height="249.48" style="fill:#fffdf9"/><rect x="195.5" y="274.69" width="1.27" height="249.48" style="fill:#fffcf8"/><rect x="196.77" y="274.69" width="1.27" height="249.48" style="fill:#fffcf7"/><rect x="198.05" y="274.69" width="1.27" height="249.48" style="fill:#fffbf6"/><rect x="199.32" y="274.69" width="1.27" height="249.48" style="fill:#fffbf5"/><rect x="200.59" y="274.69" width="1.27" height="249.48" style="fill:#fffbf4"/><rect x="201.87" y="274.69" width="1.27" height="249.48" style="fill:#fffaf3"/><rect x="203.14" y="274.69" width="1.27" height="249.48" style="fill:#fffaf2"/><rect x="204.41" y="274.69" width="1.27" height="249.48" style="fill:#fff9f1"/><rect x="205.68" y="274.69" width="1.27" height="249.48" style="fill:#fff9f0"/><rect x="206.96" y="274.69" width="1.27" height="249.48" style="fill:#fff9ef"/><rect x="208.23" y="274.69" width="1.27" height="249.48" style="fill:#fff8ee"/><rect x="209.5" y="274.69" width="1.27" height="249.48" style="fill:#fff8ed"/><rect x="210.78" y="274.69" width="1.27" height="249.48" style="fill:#fff7ec"/><rect x="212.05" y="274.69" width="1.27" height="249.48" style="fill:#fff7eb"/><rect x="213.32" y="274.69" width="1.27" height="249.48" style="fill:#fff6ea"/><rect x="214.59" y="274.69" width="1.27" height="249.48" style="fill:#fff6e9"/><rect x="215.87" y="274.69" width="1.27" height="249.48" style="fill:#fff6e8"/><rect x="217.14" y="274.69" width="1.27" height="249.48" style="fill:#fff5e7"/><rect x="218.41" y="274.69" width="1.27" height="249.48" style="fill:#fef5e6"/><rect x="219.69" y="274.69" width="1.27" height="249.48" style="fill:#fef4e5"/><rect x="220.96" y="274.69" width="1.27" height="249.48" style="fill:#fef4e4"/><rect x="222.23" y="274.69" width="1.27" height="249.48" style="fill:#fef4e3"/><rect x="223.5" y="274.69" width="1.27" height="249.48" style="fill:#fef3e2"/><rect x="224.78" y="274.69" width="1.27" height="249.48" style="fill:#fef3e1"/><rect x="226.05" y="274.69" width="1.27" height="249.48" style="fill:#fef2e0"/><rect x="227.32" y="274.69" width="1.27" height="249.48" style="fill:#fef2df"/><rect x="228.6" y="274.69" width="1.27" height="249.48" style="fill:#fef2de"/><rect x="229.87" y="274.69" width="1.27" height="249.48" style="fill:#fef1dd"/><rect x="231.14" y="274.69" width="1.27" height="249.48" style="fill:#fef1dc"/><rect x="232.41" y="274.69" width="1.27" height="249.48" style="fill:#fef0db"/><rect x="233.69" y="274.69" width="1.27" height="249.48" style="fill:#fef0da"/><rect x="234.96" y="274.69" width="1.27" height="249.48" style="fill:#fef0d9"/><rect x="236.23" y="274.69" width="1.27" height="249.48" style="fill:#feefd8"/><rect x="237.51" y="274.69" width="1.27" height="249.48" style="fill:#feefd7"/><rect x="238.78" y="274.69" width="1.27" height="249.48" style="fill:#feeed6"/><rect x="240.05" y="274.69" width="1.27" height="249.48" style="fill:#feeed5"/><rect x="241.32" y="274.69" width="1.27" height="249.48" style="fill:#feeed4"/><rect x="242.6" y="274.69" width="1.27" height="249.48" style="fill:#feedd3"/><rect x="243.87" y="274.69" width="1.27" height="249.48" style="fill:#feedd2"/><rect x="245.14" y="274.69" width="1.27" height="249.48" style="fill:#feecd1"/><rect x="246.42" y="274.69" width="1.27" height="249.48" style="fill:#feecd0"/><rect x="247.69" y="274.69" width="1.27" height="249.48" style="fill:#feeccf"/><rect x="248.96" y="274.69" width="1.27" height="249.48" style="fill:#feebce"/><rect x="250.23" y="274.69" width="1.27" height="249.48" style="fill:#feebcd"/><rect x="251.51" y="274.69" width="1.27" height="249.48" style="fill:#feeacc"/><rect x="252.78" y="274.69" width="1.27" height="249.48" style="fill:#feeacb"/><rect x="254.05" y="274.69" width="1.27" height="249.48" style="fill:#feeaca"/><rect x="255.33" y="274.69" width="1.27" height="249.48" style="fill:#fee9c9"/><rect x="256.6" y="274.69" width="1.27" height="249.48" style="fill:#fee9c8"/><rect x="257.87" y="274.69" width="1.27" height="249.48" style="fill:#fee8c7"/><rect x="259.14" y="274.69" width="1.27" height="249.48" style="fill:#fee8c6"/><rect x="260.42" y="274.69" width="1.27" height="249.48" style="fill:#fee8c5"/><rect x="261.69" y="274.69" width="1.27" height="249.48" style="fill:#fee7c4"/><rect x="262.96" y="274.69" width="1.27" height="249.48" style="fill:#fee7c3"/><rect x="264.24" y="274.69" width="1.27" height="249.48" style="fill:#fee6c2"/><rect x="265.51" y="274.69" width="1.27" height="249.48" style="fill:#fee6c1"/><rect x="266.78" y="274.69" width="1.27" height="249.48" style="fill:#fee5c0"/><rect x="268.05" y="274.69" width="1.27" height="249.48" style="fill:#fee5bf"/><rect x="269.33" y="274.69" width="1.27" height="249.48" style="fill:#fee5be"/><rect x="270.6" y="274.69" width="1.27" height="249.48" style="fill:#fee4bd"/><rect x="271.87" y="274.69" width="1.27" height="249.48" style="fill:#fee4bc"/><rect x="273.15" y="274.69" width="1.27" height="249.48" style="fill:#fee3bb"/><rect x="274.42" y="274.69" width="1.27" height="249.48" style="fill:#fee3ba"/><rect x="275.69" y="274.69" width="1.27" height="249.48" style="fill:#fee3b9"/><rect x="276.96" y="274.69" width="1.27" height="249.48" style="fill:#fee2b8"/><rect x="278.24" y="274.69" width="1.27" height="249.48" style="fill:#fee2b7"/><rect x="279.51" y="274.69" width="1.27" height="249.48" style="fill:#fee1b6"/><rect x="280.78" y="274.69" width="1.27" height="249.48" style="fill:#fde1b5"/><rect x="282.06" y="274.69" width="1.27" height="249.48" style="fill:#fde1b4"/><rect x="283.33" y="274.69" width="1.27" height="249.48" style="fill:#fde0b3"/><rect x="284.6" y="274.69" width="1.27" height="249.48" style="fill:#fde0b2"/><rect x="285.87" y="274.69" width="1.27" height="249.48" style="fill:#fddfb1"/><rect x="287.15" y="274.69" width="1.27" height="249.48" style="fill:#fddfb0"/><rect x="288.42" y="274.69" width="1.27" height="249.48" style="fill:#fddfaf"/><rect x="289.69" y="274.69" width="1.27" height="249.48" style="fill:#fddeae"/><rect x="290.97" y="274.69" width="1.27" height="249.48" style="fill:#fddead"/><rect x="292.24" y="274.69" width="1.27" height="249.48" style="fill:#fdddac"/><rect x="293.51" y="274.69" width="1.27" height="249.48" style="fill:#fdddab"/><rect x="294.78" y="274.69" width="1.27" height="249.48" style="fill:#fdddaa"/><rect x="296.06" y="274.69" width="1.27" height="249.48" style="fill:#fddca9"/><rect x="297.33" y="274.69" width="1.27" height="249.48" style="fill:#fddca8"/><rect x="298.6" y="274.69" width="1.27" height="249.48" style="fill:#fddba7"/><rect x="299.88" y="274.69" width="1.27" height="249.48" style="fill:#fddba6"/><rect x="301.15" y="274.69" width="1.27" height="249.48" style="fill:#fddba5"/><rect x="302.42" y="274.69" width="1.27" height="249.48" style="fill:#fddaa4"/><rect x="303.69" y="274.69" width="1.27" height="249.48" style="fill:#fddaa3"/><rect x="304.97" y="274.69" width="1.27" height="249.48" style="fill:#fdd9a2"/><rect x="306.24" y="274.69" width="1.27" height="249.48" style="fill:#fdd9a1"/><rect x="307.51" y="274.69" width="1.27" height="249.48" style="fill:#fdd9a0"/><rect x="308.79" y="274.69" width="1.27" height="249.48" style="fill:#fdd89f"/><rect x="310.06" y="274.69" width="1.27" height="249.48" style="fill:#fdd89e"/><rect x="311.33" y="274.69" width="1.27" height="249.48" style="fill:#fdd79c"/><rect x="312.6" y="274.69" width="1.27" height="249.48" style="fill:#fdd79b"/><rect x="313.88" y="274.69" width="1.27" height="249.48" style="fill:#fdd69a"/><rect x="315.15" y="274.69" width="1.27" height="249.48" style="fill:#fdd699"/><rect x="316.42" y="274.69" width="1.27" height="249.48" style="fill:#fdd698"/><rect x="317.7" y="274.69" width="1.27" height="249.48" style="fill:#fdd597"/><rect x="318.97" y="274.69" width="1.27" height="249.48" style="fill:#fdd596"/><rect x="320.24" y="274.69" width="1.27" height="249.48" style="fill:#fdd495"/><rect x="321.51" y="274.69" width="1.27" height="249.48" style="fill:#fdd494"/><rect x="322.79" y="274.69" width="1.27" height="249.48" style="fill:#fdd493"/><rect x="324.06" y="274.69" width="1.27" height="249.48" style="fill:#fdd392"/><rect x="325.33" y="274.69" width="1.27" height="249.48" style="fill:#fdd391"/><rect x="326.61" y="274.69" width="1.27" height="249.48" style="fill:#fdd290"/><rect x="327.88" y="274.69" width="1.27" height="249.48" style="fill:#fdd28f"/><rect x="329.15" y="274.69" width="1.27" height="249.48" style="fill:#fdd28e"/><rect x="330.42" y="274.69" width="1.27" height="249.48" style="fill:#fdd18d"/><rect x="331.7" y="274.69" width="1.27" height="249.48" style="fill:#fdd18c"/><rect x="332.97" y="274.69" width="1.27" height="249.48" style="fill:#fdd08b"/><rect x="334.24" y="274.69" width="1.27" height="249.48" style="fill:#fdd08a"/><rect x="335.52" y="274.69" width="1.27" height="249.48" style="fill:#fdd089"/><rect x="336.79" y="274.69" width="1.27" height="249.48" style="fill:#fdcf88"/><rect x="338.06" y="274.69" width="1.27" height="249.48" style="fill:#fdcf87"/><rect x="339.33" y="274.69" width="1.27" height="249.48" style="fill:#fdce86"/><rect x="340.61" y="274.69" width="1.27" height="249.48" style="fill:#fdce85"/><rect x="341.88" y="274.69" width="1.27" height="249.48" style="fill:#fcce84"/><rect x="343.15" y="274.69" width="1.27" height="249.48" style="fill:#fccd83"/><rect x="344.43" y="274.69" width="1.27" height="249.48" style="fill:#fccd82"/><rect x="345.7" y="274.69" width="1.27" height="249.48" style="fill:#fccc81"/><rect x="346.97" y="274.69" width="1.27" height="249.48" style="fill:#fccc80"/><rect x="348.24" y="274.69" width="1.27" height="249.48" style="fill:#fccc7f"/><rect x="349.52" y="274.69" width="1.27" height="249.48" style="fill:#fccb7e"/><rect x="350.79" y="274.69" width="1.27" height="249.48" style="fill:#fccb7d"/><rect x="352.06" y="274.69" width="1.27" height="249.48" style="fill:#fcca7c"/><rect x="353.34" y="274.69" width="1.27" height="249.48" style="fill:#fcca7b"/><rect x="354.61" y="274.69" width="1.27" height="249.48" style="fill:#fcca7a"/><rect x="355.88" y="274.69" width="1.27" height="249.48" style="fill:#fcc979"/><rect x="357.15" y="274.69" width="1.27" height="249.48" style="fill:#fcc978"/><rect x="358.43" y="274.69" width="1.27" height="249.48" style="fill:#fcc877"/><rect x="359.7" y="274.69" width="1.27" height="249.48" style="fill:#fcc876"/><rect x="360.97" y="274.69" width="1.27" height="249.48" style="fill:#fcc775"/><rect x="362.25" y="274.69" width="1.27" height="249.48" style="fill:#fcc774"/><rect x="363.52" y="274.69" width="1.27" height="249.48" style="fill:#fcc773"/><rect x="364.79" y="274.69" width="1.27" height="249.48" style="fill:#fcc672"/><rect x="366.06" y="274.69" width="1.27" height="249.48" style="fill:#fcc671"/><rect x="367.34" y="274.69" width="1.27" height="249.48" style="fill:#fcc570"/><rect x="368.61" y="274.69" width="1.27" height="249.48" style="fill:#fcc56f"/><rect x="369.88" y="274.69" width="1.27" height="249.48" style="fill:#fcc56e"/><rect x="371.16" y="274.69" width="1.27" height="249.48" style="fill:#fcc46d"/><rect x="372.43" y="274.69" width="1.27" height="249.48" style="fill:#fcc46c"/><rect x="373.7" y="274.69" width="1.27" height="249.48" style="fill:#fcc36b"/><rect x="374.97" y="274.69" width="1.27" height="249.48" style="fill:#fcc36a"/><rect x="376.25" y="274.69" width="1.27" height="249.48" style="fill:#fcc369"/><rect x="377.52" y="274.69" width="1.27" height="249.48" style="fill:#fcc268"/><rect x="378.79" y="274.69" width="1.27" height="249.48" style="fill:#fcc267"/><rect x="380.06" y="274.69" width="1.27" height="249.48" style="fill:#fcc166"/><rect x="381.34" y="274.69" width="1.27" height="249.48" style="fill:#fcc165"/><rect x="382.61" y="274.69" width="1.27" height="249.48" style="fill:#fcc164"/><rect x="383.88" y="274.69" width="1.27" height="249.48" style="fill:#fcc063"/><rect x="385.16" y="274.69" width="1.27" height="249.48" style="fill:#fcc062"/><rect x="386.43" y="274.69" width="1.27" height="249.48" style="fill:#fcbf61"/><rect x="387.7" y="274.69" width="1.27" height="249.48" style="fill:#fcbf60"/><rect x="388.97" y="274.69" width="1.27" height="249.48" style="fill:#fcbf5f"/><rect x="390.25" y="274.69" width="1.27" height="249.48" style="fill:#fcbe5e"/><rect x="391.52" y="274.69" width="1.27" height="249.48" style="fill:#fcbe5d"/><rect x="392.79" y="274.69" width="1.27" height="249.48" style="fill:#fcbd5c"/><rect x="394.07" y="274.69" width="1.27" height="249.48" style="fill:#fcbd5b"/><rect x="395.34" y="274.69" width="1.27" height="249.48" style="fill:#fcbd5a"/><rect x="396.61" y="274.69" width="1.27" height="249.48" style="fill:#fcbc59"/><rect x="397.88" y="274.69" width="1.27" height="249.48" style="fill:#fcbc58"/><rect x="399.16" y="274.69" width="1.27" height="249.48" style="fill:#fcbb57"/><rect x="400.43" y="274.69" width="1.27" height="249.48" style="fill:#fcbb56"/><rect x="401.7" y="274.69" width="1.27" height="249.48" style="fill:#fcbb55"/><rect x="402.98" y="274.69" width="1.27" height="249.48" style="fill:#fcba54"/><rect x="404.25" y="274.69" width="1.27" height="249.48" style="fill:#fbba53"/><rect x="405.52" y="274.69" width="1.27" height="249.48" style="fill:#fbb952"/><rect x="406.79" y="274.69" width="1.27" height="249.48" style="fill:#fbb951"/><rect x="408.07" y="274.69" width="1.27" height="249.48" style="fill:#fbb950"/><rect x="409.34" y="274.69" width="1.27" height="249.48" style="fill:#fbb84f"/><rect x="410.61" y="274.69" width="1.27" height="249.48" style="fill:#fbb84e"/><rect x="411.89" y="274.69" width="1.27" height="249.48" style="fill:#fbb74d"/><rect x="413.16" y="274.69" width="1.27" height="249.48" style="fill:#fbb74c"/><rect x="414.43" y="274.69" width="1.27" height="249.48" style="fill:#fbb64b"/><rect x="415.7" y="274.69" width="1.27" height="249.48" style="fill:#fbb64a"/><rect x="416.98" y="274.69" width="1.27" height="249.48" style="fill:#fbb649"/><rect x="418.25" y="274.69" width="1.27" height="249.48" style="fill:#fbb548"/><rect x="419.52" y="274.69" width="1.27" height="249.48" style="fill:#fbb547"/><rect x="420.8" y="274.69" width="1.27" height="249.48" style="fill:#fbb446"/><rect x="422.07" y="274.69" width="1.27" height="249.48" style="fill:#fbb445"/><rect x="423.34" y="274.69" width="1.27" height="249.48" style="fill:#fbb444"/><rect x="424.61" y="274.69" width="1.27" height="249.48" style="fill:#fbb343"/><rect x="425.89" y="274.69" width="1.27" height="249.48" style="fill:#fbb342"/><rect x="427.16" y="274.69" width="1.27" height="249.48" style="fill:#fbb241"/><rect x="428.43" y="274.69" width="1.27" height="249.48" style="fill:#fbb240"/><rect x="429.71" y="274.69" width="1.27" height="249.48" style="fill:#fbb23f"/><rect x="430.98" y="274.69" width="1.27" height="249.48" style="fill:#fbb13e"/><rect x="432.25" y="274.69" width="1.27" height="249.48" style="fill:#fbb13d"/><rect x="433.52" y="274.69" width="1.27" height="249.48" style="fill:#fbb03c"/><rect x="434.8" y="274.69" width="1.27" height="249.48" style="fill:#fbb03b"/><rect x="436.07" y="274.69" height="249.48" style="fill:#fbb03b"/></g><path d="M346.15,550.39a127.95,127.95,0,1,1,90.48-37.48A127.12,127.12,0,0,1,346.15,550.39Zm0-249.48A121.53,121.53,0,1,0,467.67,422.43,121.66,121.66,0,0,0,346.15,300.91Z" transform="translate(-34.82 -23)" style="fill:#232323"/><path d="M346.15,365.42a57,57,0,1,1-40.31,16.7,56.62,56.62,0,0,1,40.31-16.7m0-14.15a71.16,71.16,0,1,0,71.16,71.16,71.16,71.16,0,0,0-71.16-71.16Z" transform="translate(-34.82 -23)" style="fill:#212121"/><circle cx="311.33" cy="399.43" r="42.87" style="fill:#1e1e1e"/><circle cx="292.47" cy="399.43" r="9" style="fill:#f7f7f7"/><circle cx="295.9" cy="399.43" r="2.57" style="fill:#fff"/><g style="clip-path:url(#clip-path-2)"><rect x="204.57" y="517.63" width="8.45" height="57.23" style="fill:#fff"/><rect x="213.03" y="517.63" width="1" height="57.23" style="fill:#fff"/><rect x="214.03" y="517.63" width="1" height="57.23" style="fill:#fffffe"/><rect x="215.03" y="517.63" width="1" height="57.23" style="fill:#fffefd"/><rect x="216.04" y="517.63" width="1" height="57.23" style="fill:#fffefc"/><rect x="217.04" y="517.63" width="1" height="57.23" style="fill:#fffdfb"/><rect x="218.04" y="517.63" width="1" height="57.23" style="fill:#fffdfa"/><rect x="219.05" y="517.63" width="1" height="57.23" style="fill:#fffdf9"/><rect x="220.05" y="517.63" width="1" height="57.23" style="fill:#fffcf8"/><rect x="221.05" y="517.63" width="1" height="57.23" style="fill:#fffcf7"/><rect x="222.06" y="517.63" width="1" height="57.23" style="fill:#fffbf6"/><rect x="223.06" y="517.63" width="1" height="57.23" style="fill:#fffbf5"/><rect x="224.06" y="517.63" width="1" height="57.23" style="fill:#fffbf4"/><rect x="225.07" y="517.63" width="1" height="57.23" style="fill:#fffaf3"/><rect x="226.07" y="517.63" width="1" height="57.23" style="fill:#fffaf2"/><rect x="227.07" y="517.63" width="1" height="57.23" style="fill:#fff9f1"/><rect x="228.07" y="517.63" width="1" height="57.23" style="fill:#fff9f0"/><rect x="229.08" y="517.63" width="1" height="57.23" style="fill:#fff9ef"/><rect x="230.08" y="517.63" width="1" height="57.23" style="fill:#fff8ee"/><rect x="231.08" y="517.63" width="1" height="57.23" style="fill:#fff8ed"/><rect x="232.09" y="517.63" width="1" height="57.23" style="fill:#fff7ec"/><rect x="233.09" y="517.63" width="1" height="57.23" style="fill:#fff7eb"/><rect x="234.09" y="517.63" width="1" height="57.23" style="fill:#fff6ea"/><rect x="235.1" y="517.63" width="1" height="57.23" style="fill:#fff6e9"/><rect x="236.1" y="517.63" width="1" height="57.23" style="fill:#fff6e8"/><rect x="237.1" y="517.63" width="1" height="57.23" style="fill:#fff5e7"/><rect x="238.11" y="517.63" width="1" height="57.23" style="fill:#fef5e6"/><rect x="239.11" y="517.63" width="1" height="57.23" style="fill:#fef4e5"/><rect x="240.11" y="517.63" width="1" height="57.23" style="fill:#fef4e4"/><rect x="241.11" y="517.63" width="1" height="57.23" style="fill:#fef4e3"/><rect x="242.12" y="517.63" width="1" height="57.23" style="fill:#fef3e2"/><rect x="243.12" y="517.63" width="1" height="57.23" style="fill:#fef3e1"/><rect x="244.12" y="517.63" width="1" height="57.23" style="fill:#fef2e0"/><rect x="245.13" y="517.63" width="1" height="57.23" style="fill:#fef2df"/><rect x="246.13" y="517.63" width="1" height="57.23" style="fill:#fef2de"/><rect x="247.13" y="517.63" width="1" height="57.23" style="fill:#fef1dd"/><rect x="248.14" y="517.63" width="1" height="57.23" style="fill:#fef1dc"/><rect x="249.14" y="517.63" width="1" height="57.23" style="fill:#fef0db"/><rect x="250.14" y="517.63" width="1" height="57.23" style="fill:#fef0da"/><rect x="251.15" y="517.63" width="1" height="57.23" style="fill:#fef0d9"/><rect x="252.15" y="517.63" width="1" height="57.23" style="fill:#feefd8"/><rect x="253.15" y="517.63" width="1" height="57.23" style="fill:#feefd7"/><rect x="254.15" y="517.63" width="1" height="57.23" style="fill:#feeed6"/><rect x="255.16" y="517.63" width="1" height="57.23" style="fill:#feeed5"/><rect x="256.16" y="517.63" width="1" height="57.23" style="fill:#feeed4"/><rect x="257.16" y="517.63" width="1" height="57.23" style="fill:#feedd3"/><rect x="258.17" y="517.63" width="1" height="57.23" style="fill:#feedd2"/><rect x="259.17" y="517.63" width="1" height="57.23" style="fill:#feecd1"/><rect x="260.17" y="517.63" width="1" height="57.23" style="fill:#feecd0"/><rect x="261.18" y="517.63" width="1" height="57.23" style="fill:#feeccf"/><rect x="262.18" y="517.63" width="1" height="57.23" style="fill:#feebce"/><rect x="263.18" y="517.63" width="1" height="57.23" style="fill:#feebcd"/><rect x="264.19" y="517.63" width="1" height="57.23" style="fill:#feeacc"/><rect x="265.19" y="517.63" width="1" height="57.23" style="fill:#feeacb"/><rect x="266.19" y="517.63" width="1" height="57.23" style="fill:#feeaca"/><rect x="267.19" y="517.63" width="1" height="57.23" style="fill:#fee9c9"/><rect x="268.2" y="517.63" width="1" height="57.23" style="fill:#fee9c8"/><rect x="269.2" y="517.63" width="1" height="57.23" style="fill:#fee8c7"/><rect x="270.2" y="517.63" width="1" height="57.23" style="fill:#fee8c6"/><rect x="271.21" y="517.63" width="1" height="57.23" style="fill:#fee8c5"/><rect x="272.21" y="517.63" width="1" height="57.23" style="fill:#fee7c4"/><rect x="273.21" y="517.63" width="1" height="57.23" style="fill:#fee7c3"/><rect x="274.22" y="517.63" width="1" height="57.23" style="fill:#fee6c2"/><rect x="275.22" y="517.63" width="1" height="57.23" style="fill:#fee6c1"/><rect x="276.22" y="517.63" width="1" height="57.23" style="fill:#fee5c0"/><rect x="277.23" y="517.63" width="1" height="57.23" style="fill:#fee5bf"/><rect x="278.23" y="517.63" width="1" height="57.23" style="fill:#fee5be"/><rect x="279.23" y="517.63" width="1" height="57.23" style="fill:#fee4bd"/><rect x="280.24" y="517.63" width="1" height="57.23" style="fill:#fee4bc"/><rect x="281.24" y="517.63" width="1" height="57.23" style="fill:#fee3bb"/><rect x="282.24" y="517.63" width="1" height="57.23" style="fill:#fee3ba"/><rect x="283.24" y="517.63" width="1" height="57.23" style="fill:#fee3b9"/><rect x="284.25" y="517.63" width="1" height="57.23" style="fill:#fee2b8"/><rect x="285.25" y="517.63" width="1" height="57.23" style="fill:#fee2b7"/><rect x="286.25" y="517.63" width="1" height="57.23" style="fill:#fee1b6"/><rect x="287.26" y="517.63" width="1" height="57.23" style="fill:#fde1b5"/><rect x="288.26" y="517.63" width="1" height="57.23" style="fill:#fde1b4"/><rect x="289.26" y="517.63" width="1" height="57.23" style="fill:#fde0b3"/><rect x="290.27" y="517.63" width="1" height="57.23" style="fill:#fde0b2"/><rect x="291.27" y="517.63" width="1" height="57.23" style="fill:#fddfb1"/><rect x="292.27" y="517.63" width="1" height="57.23" style="fill:#fddfb0"/><rect x="293.28" y="517.63" width="1" height="57.23" style="fill:#fddfaf"/><rect x="294.28" y="517.63" width="1" height="57.23" style="fill:#fddeae"/><rect x="295.28" y="517.63" width="1" height="57.23" style="fill:#fddead"/><rect x="296.28" y="517.63" width="1" height="57.23" style="fill:#fdddac"/><rect x="297.29" y="517.63" width="1" height="57.23" style="fill:#fdddab"/><rect x="298.29" y="517.63" width="1" height="57.23" style="fill:#fdddaa"/><rect x="299.29" y="517.63" width="1" height="57.23" style="fill:#fddca9"/><rect x="300.3" y="517.63" width="1" height="57.23" style="fill:#fddca8"/><rect x="301.3" y="517.63" width="1" height="57.23" style="fill:#fddba7"/><rect x="302.3" y="517.63" width="1" height="57.23" style="fill:#fddba6"/><rect x="303.31" y="517.63" width="1" height="57.23" style="fill:#fddba5"/><rect x="304.31" y="517.63" width="1" height="57.23" style="fill:#fddaa4"/><rect x="305.31" y="517.63" width="1" height="57.23" style="fill:#fddaa3"/><rect x="306.32" y="517.63" width="1" height="57.23" style="fill:#fdd9a2"/><rect x="307.32" y="517.63" width="1" height="57.23" style="fill:#fdd9a1"/><rect x="308.32" y="517.63" width="1" height="57.23" style="fill:#fdd9a0"/><rect x="309.32" y="517.63" width="1" height="57.23" style="fill:#fdd89f"/><rect x="310.33" y="517.63" width="1" height="57.23" style="fill:#fdd89e"/><rect x="311.33" y="517.63" width="1" height="57.23" style="fill:#fdd79c"/><rect x="312.33" y="517.63" width="1" height="57.23" style="fill:#fdd79b"/><rect x="313.34" y="517.63" width="1" height="57.23" style="fill:#fdd69a"/><rect x="314.34" y="517.63" width="1" height="57.23" style="fill:#fdd699"/><rect x="315.34" y="517.63" width="1" height="57.23" style="fill:#fdd698"/><rect x="316.35" y="517.63" width="1" height="57.23" style="fill:#fdd597"/><rect x="317.35" y="517.63" width="1" height="57.23" style="fill:#fdd596"/><rect x="318.35" y="517.63" width="1" height="57.23" style="fill:#fdd495"/><rect x="319.36" y="517.63" width="1" height="57.23" style="fill:#fdd494"/><rect x="320.36" y="517.63" width="1" height="57.23" style="fill:#fdd493"/><rect x="321.36" y="517.63" width="1" height="57.23" style="fill:#fdd392"/><rect x="322.36" y="517.63" width="1" height="57.23" style="fill:#fdd391"/><rect x="323.37" y="517.63" width="1" height="57.23" style="fill:#fdd290"/><rect x="324.37" y="517.63" width="1" height="57.23" style="fill:#fdd28f"/><rect x="325.37" y="517.63" width="1" height="57.23" style="fill:#fdd28e"/><rect x="326.38" y="517.63" width="1" height="57.23" style="fill:#fdd18d"/><rect x="327.38" y="517.63" width="1" height="57.23" style="fill:#fdd18c"/><rect x="328.38" y="517.63" width="1" height="57.23" style="fill:#fdd08b"/><rect x="329.39" y="517.63" width="1" height="57.23" style="fill:#fdd08a"/><rect x="330.39" y="517.63" width="1" height="57.23" style="fill:#fdd089"/><rect x="331.39" y="517.63" width="1" height="57.23" style="fill:#fdcf88"/><rect x="332.4" y="517.63" width="1" height="57.23" style="fill:#fdcf87"/><rect x="333.4" y="517.63" width="1" height="57.23" style="fill:#fdce86"/><rect x="334.4" y="517.63" width="1" height="57.23" style="fill:#fdce85"/><rect x="335.41" y="517.63" width="1" height="57.23" style="fill:#fcce84"/><rect x="336.41" y="517.63" width="1" height="57.23" style="fill:#fccd83"/><rect x="337.41" y="517.63" width="1" height="57.23" style="fill:#fccd82"/><rect x="338.41" y="517.63" width="1" height="57.23" style="fill:#fccc81"/><rect x="339.42" y="517.63" width="1" height="57.23" style="fill:#fccc80"/><rect x="340.42" y="517.63" width="1" height="57.23" style="fill:#fccc7f"/><rect x="341.42" y="517.63" width="1" height="57.23" style="fill:#fccb7e"/><rect x="342.43" y="517.63" width="1" height="57.23" style="fill:#fccb7d"/><rect x="343.43" y="517.63" width="1" height="57.23" style="fill:#fcca7c"/><rect x="344.43" y="517.63" width="1" height="57.23" style="fill:#fcca7b"/><rect x="345.44" y="517.63" width="1" height="57.23" style="fill:#fcca7a"/><rect x="346.44" y="517.63" width="1" height="57.23" style="fill:#fcc979"/><rect x="347.44" y="517.63" width="1" height="57.23" style="fill:#fcc978"/><rect x="348.45" y="517.63" width="1" height="57.23" style="fill:#fcc877"/><rect x="349.45" y="517.63" width="1" height="57.23" style="fill:#fcc876"/><rect x="350.45" y="517.63" width="1" height="57.23" style="fill:#fcc775"/><rect x="351.45" y="517.63" width="1" height="57.23" style="fill:#fcc774"/><rect x="352.46" y="517.63" width="1" height="57.23" style="fill:#fcc773"/><rect x="353.46" y="517.63" width="1" height="57.23" style="fill:#fcc672"/><rect x="354.46" y="517.63" width="1" height="57.23" style="fill:#fcc671"/><rect x="355.47" y="517.63" width="1" height="57.23" style="fill:#fcc570"/><rect x="356.47" y="517.63" width="1" height="57.23" style="fill:#fcc56f"/><rect x="357.47" y="517.63" width="1" height="57.23" style="fill:#fcc56e"/><rect x="358.48" y="517.63" width="1" height="57.23" style="fill:#fcc46d"/><rect x="359.48" y="517.63" width="1" height="57.23" style="fill:#fcc46c"/><rect x="360.48" y="517.63" width="1" height="57.23" style="fill:#fcc36b"/><rect x="361.49" y="517.63" width="1" height="57.23" style="fill:#fcc36a"/><rect x="362.49" y="517.63" width="1" height="57.23" style="fill:#fcc369"/><rect x="363.49" y="517.63" width="1" height="57.23" style="fill:#fcc268"/><rect x="364.49" y="517.63" width="1" height="57.23" style="fill:#fcc267"/><rect x="365.5" y="517.63" width="1" height="57.23" style="fill:#fcc166"/><rect x="366.5" y="517.63" width="1" height="57.23" style="fill:#fcc165"/><rect x="367.5" y="517.63" width="1" height="57.23" style="fill:#fcc164"/><rect x="368.51" y="517.63" width="1" height="57.23" style="fill:#fcc063"/><rect x="369.51" y="517.63" width="1" height="57.23" style="fill:#fcc062"/><rect x="370.51" y="517.63" width="1" height="57.23" style="fill:#fcbf61"/><rect x="371.52" y="517.63" width="1" height="57.23" style="fill:#fcbf60"/><rect x="372.52" y="517.63" width="1" height="57.23" style="fill:#fcbf5f"/><rect x="373.52" y="517.63" width="1" height="57.23" style="fill:#fcbe5e"/><rect x="374.53" y="517.63" width="1" height="57.23" style="fill:#fcbe5d"/><rect x="375.53" y="517.63" width="1" height="57.23" style="fill:#fcbd5c"/><rect x="376.53" y="517.63" width="1" height="57.23" style="fill:#fcbd5b"/><rect x="377.53" y="517.63" width="1" height="57.23" style="fill:#fcbd5a"/><rect x="378.54" y="517.63" width="1" height="57.23" style="fill:#fcbc59"/><rect x="379.54" y="517.63" width="1" height="57.23" style="fill:#fcbc58"/><rect x="380.54" y="517.63" width="1" height="57.23" style="fill:#fcbb57"/><rect x="381.55" y="517.63" width="1" height="57.23" style="fill:#fcbb56"/><rect x="382.55" y="517.63" width="1" height="57.23" style="fill:#fcbb55"/><rect x="383.55" y="517.63" width="1" height="57.23" style="fill:#fcba54"/><rect x="384.56" y="517.63" width="1" height="57.23" style="fill:#fbba53"/><rect x="385.56" y="517.63" width="1" height="57.23" style="fill:#fbb952"/><rect x="386.56" y="517.63" width="1" height="57.23" style="fill:#fbb951"/><rect x="387.57" y="517.63" width="1" height="57.23" style="fill:#fbb950"/><rect x="388.57" y="517.63" width="1" height="57.23" style="fill:#fbb84f"/><rect x="389.57" y="517.63" width="1" height="57.23" style="fill:#fbb84e"/><rect x="390.58" y="517.63" width="1" height="57.23" style="fill:#fbb74d"/><rect x="391.58" y="517.63" width="1" height="57.23" style="fill:#fbb74c"/><rect x="392.58" y="517.63" width="1" height="57.23" style="fill:#fbb64b"/><rect x="393.58" y="517.63" width="1" height="57.23" style="fill:#fbb64a"/><rect x="394.59" y="517.63" width="1" height="57.23" style="fill:#fbb649"/><rect x="395.59" y="517.63" width="1" height="57.23" style="fill:#fbb548"/><rect x="396.59" y="517.63" width="1" height="57.23" style="fill:#fbb547"/><rect x="397.6" y="517.63" width="1" height="57.23" style="fill:#fbb446"/><rect x="398.6" y="517.63" width="1" height="57.23" style="fill:#fbb445"/><rect x="399.6" y="517.63" width="1" height="57.23" style="fill:#fbb444"/><rect x="400.61" y="517.63" width="1" height="57.23" style="fill:#fbb343"/><rect x="401.61" y="517.63" width="1" height="57.23" style="fill:#fbb342"/><rect x="402.61" y="517.63" width="1" height="57.23" style="fill:#fbb241"/><rect x="403.62" y="517.63" width="1" height="57.23" style="fill:#fbb240"/><rect x="404.62" y="517.63" width="1" height="57.23" style="fill:#fbb23f"/><rect x="405.62" y="517.63" width="1" height="57.23" style="fill:#fbb13e"/><rect x="406.62" y="517.63" width="1" height="57.23" style="fill:#fbb13d"/><rect x="407.63" y="517.63" width="1" height="57.23" style="fill:#fbb03c"/><rect x="408.63" y="517.63" width="1" height="57.23" style="fill:#fbb03b"/><rect x="409.63" y="517.63" width="5.41" height="57.23" style="fill:#fbb03b"/></g><path d="M434,592.28H259.1l-.42-.12c-7-1.93-11.45-5.42-13.23-10.37-2.95-8.2,3.05-16.92,3.31-17.29l19.4-28.39,2.67,1.9c32.47,23.11,67.53,30.25,104.21,21.23a135.45,135.45,0,0,0,45.85-20.73l2.64-2,1.94,2.7,19.92,27.71.13.31c2.66,6.1,2.86,11.48.59,16-3.47,6.94-11.46,8.9-11.8,9Zm-174-6.43H433.13c1.17-.36,5.44-1.89,7.25-5.55,1.32-2.67,1.11-6.11-.62-10.22l-17.64-24.54a144.76,144.76,0,0,1-45.28,19.88,129.22,129.22,0,0,1-50.39,2.6c-19.64-2.94-38.69-10.64-56.66-22.9l-15.74,23c-1.24,1.79-4.06,7.28-2.54,11.48C252.51,582.41,255.37,584.5,260,585.85Z" transform="translate(-34.82 -23)" style="fill:#232323"/></svg>