<svg id="Layer_1" data-name="Layer 1" xmlns="http://www.w3.org/2000/svg" xmlns:xlink="http://www.w3.org/1999/xlink" viewBox="0 0 596 710.97"><defs><clipPath id="clip-path" transform="translate(-252 -18.09)"><circle id="SVGID" cx="550" cy="316.09" r="290.51" style="fill:none"/></clipPath><clipPath id="clip-path-2" transform="translate(-252 -18.09)"><path id="SVGID-2" data-name="SVGID" d="M728.63,596.78s-171.16,132.28-358.39-1l-40.94,59.9s-27.95,39.93,19,52.91H753.59s37.94-9,21-47.92Z" style="fill:none"/></clipPath></defs><title>cam</title><g style="clip-path:url(#clip-path)"><path d="M259.49,25.58v0Z" transform="translate(-252 -18.09)" style="fill:#fff"/><rect x="7.49" y="7.49" width="2.96" height="581.03" style="fill:#fff"/><rect x="10.45" y="7.49" width="2.96" height="581.03" style="fill:#fffffe"/><rect x="13.42" y="7.49" width="2.96" height="581.03" style="fill:#fffefd"/><rect x="16.38" y="7.49" width="2.96" height="581.03" style="fill:#fffefc"/><rect x="19.35" y="7.49" width="2.96" height="581.03" style="fill:#fffdfb"/><rect x="22.31" y="7.49" width="2.96" height="581.03" style="fill:#fffdfa"/><rect x="25.27" y="7.49" width="2.96" height="581.03" style="fill:#fffdf9"/><rect x="28.24" y="7.49" width="2.96" height="581.03" style="fill:#fffcf8"/><rect x="31.2" y="7.49" width="2.96" height="581.03" style="fill:#fffcf7"/><rect x="34.17" y="7.49" width="2.96" height="581.03" style="fill:#fffbf6"/><rect x="37.13" y="7.49" width="2.96" height="581.03" style="fill:#fffbf5"/><rect x="40.1" y="7.49" width="2.96" height="581.03" style="fill:#fffbf4"/><rect x="43.06" y="7.49" width="2.96" height="581.03" style="fill:#fffaf3"/><rect x="46.02" y="7.49" width="2.96" height="581.03" style="fill:#fffaf2"/><rect x="48.99" y="7.49" width="2.96" height="581.03" style="fill:#fff9f1"/><rect x="51.95" y="7.49" width="2.96" height="581.03" style="fill:#fff9f0"/><rect x="54.92" y="7.49" width="2.96" height="581.03" style="fill:#fff9ef"/><rect x="57.88" y="7.49" width="2.96" height="581.03" style="fill:#fff8ee"/><rect x="60.85" y="7.49" width="2.96" height="581.03" style="fill:#fff8ed"/><rect x="63.81" y="7.49" width="2.96" height="581.03" style="fill:#fff7ec"/><rect x="66.78" y="7.49" width="2.96" height="581.03" style="fill:#fff7eb"/><rect x="69.74" y="7.49" width="2.96" height="581.03" style="fill:#fff6ea"/><rect x="72.7" y="7.49" width="2.96" height="581.03" style="fill:#fff6e9"/><rect x="75.67" y="7.49" width="2.96" height="581.03" style="fill:#fff6e8"/><rect x="78.63" y="7.49" width="2.96" height="581.03" style="fill:#fff5e7"/><rect x="81.6" y="7.49" width="2.96" height="581.03" style="fill:#fef5e6"/><rect x="84.56" y="7.49" width="2.96" height="581.03" style="fill:#fef4e5"/><rect x="87.53" y="7.49" width="2.96" height="581.03" style="fill:#fef4e4"/><rect x="90.49" y="7.49" width="2.96" height="581.03" style="fill:#fef4e3"/><rect x="93.46" y="7.49" width="2.96" height="581.03" style="fill:#fef3e2"/><rect x="96.42" y="7.49" width="2.96" height="581.03" style="fill:#fef3e1"/><rect x="99.38" y="7.49" width="2.96" height="581.03" style="fill:#fef2e0"/><rect x="102.35" y="7.49" width="2.96" height="581.03" style="fill:#fef2df"/><rect x="105.31" y="7.49" width="2.96" height="581.03" style="fill:#fef2de"/><rect x="108.28" y="7.49" width="2.96" height="581.03" style="fill:#fef1dd"/><rect x="111.24" y="7.49" width="2.96" height="581.03" style="fill:#fef1dc"/><rect x="114.21" y="7.49" width="2.96" height="581.03" style="fill:#fef0db"/><rect x="117.17" y="7.49" width="2.96" height="581.03" style="fill:#fef0da"/><rect x="120.14" y="7.49" width="2.96" height="581.03" style="fill:#fef0d9"/><rect x="123.1" y="7.49" width="2.96" height="581.03" style="fill:#feefd8"/><rect x="126.06" y="7.49" width="2.96" height="581.03" style="fill:#feefd7"/><rect x="129.03" y="7.49" width="2.96" height="581.03" style="fill:#feeed6"/><rect x="131.99" y="7.49" width="2.96" height="581.03" style="fill:#feeed5"/><rect x="134.96" y="7.49" width="2.96" height="581.03" style="fill:#feeed4"/><rect x="137.92" y="7.49" width="2.96" height="581.03" style="fill:#feedd3"/><rect x="140.89" y="7.49" width="2.96" height="581.03" style="fill:#feedd2"/><rect x="143.85" y="7.49" width="2.96" height="581.03" style="fill:#feecd1"/><rect x="146.81" y="7.49" width="2.96" height="581.03" style="fill:#feecd0"/><rect x="149.78" y="7.49" width="2.96" height="581.03" style="fill:#feeccf"/><rect x="152.74" y="7.49" width="2.96" height="581.03" style="fill:#feebce"/><rect x="155.71" y="7.49" width="2.96" height="581.03" style="fill:#feebcd"/><rect x="158.67" y="7.49" width="2.96" height="581.03" style="fill:#feeacc"/><rect x="161.64" y="7.49" width="2.96" height="581.03" style="fill:#feeacb"/><rect x="164.6" y="7.49" width="2.96" height="581.03" style="fill:#feeaca"/><rect x="167.57" y="7.49" width="2.96" height="581.03" style="fill:#fee9c9"/><rect x="170.53" y="7.49" width="2.96" height="581.03" style="fill:#fee9c8"/><rect x="173.49" y="7.49" width="2.96" height="581.03" style="fill:#fee8c7"/><rect x="176.46" y="7.49" width="2.96" height="581.03" style="fill:#fee8c6"/><rect x="179.42" y="7.49" width="2.96" height="581.03" style="fill:#fee8c5"/><rect x="182.39" y="7.49" width="2.96" height="581.03" style="fill:#fee7c4"/><rect x="185.35" y="7.49" width="2.96" height="581.03" style="fill:#fee7c3"/><rect x="188.32" y="7.49" width="2.96" height="581.03" style="fill:#fee6c2"/><rect x="191.28" y="7.49" width="2.96" height="581.03" style="fill:#fee6c1"/><rect x="194.25" y="7.49" width="2.96" height="581.03" style="fill:#fee5c0"/><rect x="197.21" y="7.49" width="2.96" height="581.03" style="fill:#fee5bf"/><rect x="200.17" y="7.49" width="2.96" height="581.03" style="fill:#fee5be"/><rect x="203.14" y="7.49" width="2.96" height="581.03" style="fill:#fee4bd"/><rect x="206.1" y="7.49" width="2.96" height="581.03" style="fill:#fee4bc"/><rect x="209.07" y="7.49" width="2.96" height="581.03" style="fill:#fee3bb"/><rect x="212.03" y="7.49" width="2.96" height="581.03" style="fill:#fee3ba"/><rect x="215" y="7.49" width="2.96" height="581.03" style="fill:#fee3b9"/><rect x="217.96" y="7.49" width="2.96" height="581.03" style="fill:#fee2b8"/><rect x="220.93" y="7.49" width="2.96" height="581.03" style="fill:#fee2b7"/><rect x="223.89" y="7.49" width="2.96" height="581.03" style="fill:#fee1b6"/><rect x="226.85" y="7.49" width="2.96" height="581.03" style="fill:#fde1b5"/><rect x="229.82" y="7.49" width="2.96" height="581.03" style="fill:#fde1b4"/><rect x="232.78" y="7.49" width="2.96" height="581.03" style="fill:#fde0b3"/><rect x="235.75" y="7.49" width="2.96" height="581.03" style="fill:#fde0b2"/><rect x="238.71" y="7.49" width="2.96" height="581.03" style="fill:#fddfb1"/><rect x="241.68" y="7.49" width="2.96" height="581.03" style="fill:#fddfb0"/><rect x="244.64" y="7.49" width="2.96" height="581.03" style="fill:#fddfaf"/><rect x="247.6" y="7.49" width="2.96" height="581.03" style="fill:#fddeae"/><rect x="250.57" y="7.49" width="2.96" height="581.03" style="fill:#fddead"/><rect x="253.53" y="7.49" width="2.96" height="581.03" style="fill:#fdddac"/><rect x="256.5" y="7.49" width="2.96" height="581.03" style="fill:#fdddab"/><rect x="259.46" y="7.49" width="2.96" height="581.03" style="fill:#fdddaa"/><rect x="262.43" y="7.49" width="2.96" height="581.03" style="fill:#fddca9"/><rect x="265.39" y="7.49" width="2.96" height="581.03" style="fill:#fddca8"/><rect x="268.36" y="7.49" width="2.96" height="581.03" style="fill:#fddba7"/><rect x="271.32" y="7.49" width="2.96" height="581.03" style="fill:#fddba6"/><rect x="274.28" y="7.49" width="2.96" height="581.03" style="fill:#fddba5"/><rect x="277.25" y="7.49" width="2.96" height="581.03" style="fill:#fddaa4"/><rect x="280.21" y="7.49" width="2.96" height="581.03" style="fill:#fddaa3"/><rect x="283.18" y="7.49" width="2.96" height="581.03" style="fill:#fdd9a2"/><rect x="286.14" y="7.49" width="2.96" height="581.03" style="fill:#fdd9a1"/><rect x="289.11" y="7.49" width="2.96" height="581.03" style="fill:#fdd9a0"/><rect x="292.07" y="7.49" width="2.96" height="581.03" style="fill:#fdd89f"/><rect x="295.04" y="7.49" width="2.96" height="581.03" style="fill:#fdd89e"/><rect x="298" y="7.49" width="2.96" height="581.03" style="fill:#fdd79c"/><rect x="300.96" y="7.49" width="2.96" height="581.03" style="fill:#fdd79b"/><rect x="303.93" y="7.49" width="2.96" height="581.03" style="fill:#fdd69a"/><rect x="306.89" y="7.49" width="2.96" height="581.03" style="fill:#fdd699"/><rect x="309.86" y="7.49" width="2.96" height="581.03" style="fill:#fdd698"/><rect x="312.82" y="7.49" width="2.96" height="581.03" style="fill:#fdd597"/><rect x="315.79" y="7.49" width="2.96" height="581.03" style="fill:#fdd596"/><rect x="318.75" y="7.49" width="2.96" height="581.03" style="fill:#fdd495"/><rect x="321.72" y="7.49" width="2.96" height="581.03" style="fill:#fdd494"/><rect x="324.68" y="7.49" width="2.96" height="581.03" style="fill:#fdd493"/><rect x="327.64" y="7.49" width="2.96" height="581.03" style="fill:#fdd392"/><rect x="330.61" y="7.49" width="2.96" height="581.03" style="fill:#fdd391"/><rect x="333.57" y="7.49" width="2.96" height="581.03" style="fill:#fdd290"/><rect x="336.54" y="7.49" width="2.96" height="581.03" style="fill:#fdd28f"/><rect x="339.5" y="7.49" width="2.96" height="581.03" style="fill:#fdd28e"/><rect x="342.47" y="7.49" width="2.96" height="581.03" style="fill:#fdd18d"/><rect x="345.43" y="7.49" width="2.96" height="581.03" style="fill:#fdd18c"/><rect x="348.39" y="7.49" width="2.96" height="581.03" style="fill:#fdd08b"/><rect x="351.36" y="7.49" width="2.96" height="581.03" style="fill:#fdd08a"/><rect x="354.32" y="7.49" width="2.96" height="581.03" style="fill:#fdd089"/><rect x="357.29" y="7.49" width="2.96" height="581.03" style="fill:#fdcf88"/><rect x="360.25" y="7.49" width="2.96" height="581.03" style="fill:#fdcf87"/><rect x="363.22" y="7.49" width="2.96" height="581.03" style="fill:#fdce86"/><rect x="366.18" y="7.49" width="2.96" height="581.03" style="fill:#fdce85"/><rect x="369.15" y="7.49" width="2.96" height="581.03" style="fill:#fcce84"/><rect x="372.11" y="7.49" width="2.96" height="581.03" style="fill:#fccd83"/><rect x="375.07" y="7.49" width="2.96" height="581.03" style="fill:#fccd82"/><rect x="378.04" y="7.49" width="2.96" height="581.03" style="fill:#fccc81"/><rect x="381" y="7.49" width="2.96" height="581.03" style="fill:#fccc80"/><rect x="383.97" y="7.49" width="2.96" height="581.03" style="fill:#fccc7f"/><rect x="386.93" y="7.49" width="2.96" height="581.03" style="fill:#fccb7e"/><rect x="389.9" y="7.49" width="2.96" height="581.03" style="fill:#fccb7d"/><rect x="392.86" y="7.49" width="2.96" height="581.03" style="fill:#fcca7c"/><rect x="395.83" y="7.49" width="2.96" height="581.03" style="fill:#fcca7b"/><rect x="398.79" y="7.49" width="2.96" height="581.03" style="fill:#fcca7a"/><rect x="401.75" y="7.49" width="2.96" height="581.03" style="fill:#fcc979"/><rect x="404.72" y="7.49" width="2.96" height="581.03" style="fill:#fcc978"/><rect x="407.68" y="7.49" width="2.96" height="581.03" style="fill:#fcc877"/><rect x="410.65" y="7.49" width="2.96" height="581.03" style="fill:#fcc876"/><rect x="413.61" y="7.49" width="2.96" height="581.03" style="fill:#fcc775"/><rect x="416.58" y="7.49" width="2.96" height="581.03" style="fill:#fcc774"/><rect x="419.54" y="7.49" width="2.96" height="581.03" style="fill:#fcc773"/><rect x="422.51" y="7.49" width="2.96" height="581.03" style="fill:#fcc672"/><rect x="425.47" y="7.49" width="2.96" height="581.03" style="fill:#fcc671"/><rect x="428.43" y="7.49" width="2.96" height="581.03" style="fill:#fcc570"/><rect x="431.4" y="7.49" width="2.96" height="581.03" style="fill:#fcc56f"/><rect x="434.36" y="7.49" width="2.96" height="581.03" style="fill:#fcc56e"/><rect x="437.33" y="7.49" width="2.96" height="581.03" style="fill:#fcc46d"/><rect x="440.29" y="7.49" width="2.96" height="581.03" style="fill:#fcc46c"/><rect x="443.26" y="7.49" width="2.96" height="581.03" style="fill:#fcc36b"/><rect x="446.22" y="7.49" width="2.96" height="581.03" style="fill:#fcc36a"/><rect x="449.19" y="7.49" width="2.96" height="581.03" style="fill:#fcc369"/><rect x="452.15" y="7.49" width="2.96" height="581.03" style="fill:#fcc268"/><rect x="455.11" y="7.49" width="2.96" height="581.03" style="fill:#fcc267"/><rect x="458.08" y="7.49" width="2.96" height="581.03" style="fill:#fcc166"/><rect x="461.04" y="7.49" width="2.96" height="581.03" style="fill:#fcc165"/><rect x="464.01" y="7.49" width="2.96" height="581.03" style="fill:#fcc164"/><rect x="466.97" y="7.49" width="2.96" height="581.03" style="fill:#fcc063"/><rect x="469.94" y="7.49" width="2.96" height="581.03" style="fill:#fcc062"/><rect x="472.9" y="7.49" width="2.96" height="581.03" style="fill:#fcbf61"/><rect x="475.86" y="7.49" width="2.96" height="581.03" style="fill:#fcbf60"/><rect x="478.83" y="7.49" width="2.96" height="581.03" style="fill:#fcbf5f"/><rect x="481.79" y="7.49" width="2.96" height="581.03" style="fill:#fcbe5e"/><rect x="484.76" y="7.49" width="2.96" height="581.03" style="fill:#fcbe5d"/><rect x="487.72" y="7.49" width="2.96" height="581.03" style="fill:#fcbd5c"/><rect x="490.69" y="7.49" width="2.96" height="581.03" style="fill:#fcbd5b"/><rect x="493.65" y="7.49" width="2.96" height="581.03" style="fill:#fcbd5a"/><rect x="496.62" y="7.49" width="2.96" height="581.03" style="fill:#fcbc59"/><rect x="499.58" y="7.49" width="2.96" height="581.03" style="fill:#fcbc58"/><rect x="502.54" y="7.49" width="2.96" height="581.03" style="fill:#fcbb57"/><rect x="505.51" y="7.49" width="2.96" height="581.03" style="fill:#fcbb56"/><rect x="508.47" y="7.49" width="2.96" height="581.03" style="fill:#fcbb55"/><rect x="511.44" y="7.49" width="2.96" height="581.03" style="fill:#fcba54"/><rect x="514.4" y="7.49" width="2.96" height="581.03" style="fill:#fbba53"/><rect x="517.37" y="7.49" width="2.96" height="581.03" style="fill:#fbb952"/><rect x="520.33" y="7.49" width="2.96" height="581.03" style="fill:#fbb951"/><rect x="523.3" y="7.49" width="2.96" height="581.03" style="fill:#fbb950"/><rect x="526.26" y="7.49" width="2.96" height="581.03" style="fill:#fbb84f"/><rect x="529.22" y="7.49" width="2.96" height="581.03" style="fill:#fbb84e"/><rect x="532.19" y="7.49" width="2.96" height="581.03" style="fill:#fbb74d"/><rect x="535.15" y="7.49" width="2.96" height="581.03" style="fill:#fbb74c"/><rect x="538.12" y="7.49" width="2.96" height="581.03" style="fill:#fbb64b"/><rect x="541.08" y="7.49" width="2.96" height="581.03" style="fill:#fbb64a"/><rect x="544.05" y="7.49" width="2.96" height="581.03" style="fill:#fbb649"/><rect x="547.01" y="7.49" width="2.96" height="581.03" style="fill:#fbb548"/><rect x="549.98" y="7.49" width="2.96" height="581.03" style="fill:#fbb547"/><rect x="552.94" y="7.49" width="2.96" height="581.03" style="fill:#fbb446"/><rect x="555.9" y="7.49" width="2.96" height="581.03" style="fill:#fbb445"/><rect x="558.87" y="7.49" width="2.96" height="581.03" style="fill:#fbb444"/><rect x="561.83" y="7.49" width="2.96" height="581.03" style="fill:#fbb343"/><rect x="564.8" y="7.49" width="2.96" height="581.03" style="fill:#fbb342"/><rect x="567.76" y="7.49" width="2.96" height="581.03" style="fill:#fbb241"/><rect x="570.73" y="7.49" width="2.96" height="581.03" style="fill:#fbb240"/><rect x="573.69" y="7.49" width="2.96" height="581.03" style="fill:#fbb23f"/><rect x="576.65" y="7.49" width="2.96" height="581.03" style="fill:#fbb13e"/><rect x="579.62" y="7.49" width="2.96" height="581.03" style="fill:#fbb13d"/><rect x="582.58" y="7.49" width="2.96" height="581.03" style="fill:#fbb03c"/><rect x="585.55" y="7.49" width="2.96" height="581.03" style="fill:#fbb03b"/><rect x="588.51" y="7.49" height="581.03" style="fill:#fbb03b"/></g><path d="M550,614.09A298,298,0,0,1,339.28,105.37,298,298,0,0,1,760.72,526.81,296.08,296.08,0,0,1,550,614.09Zm0-581c-156.06,0-283,127-283,283s127,283,283,283,283-127,283-283S706.06,33.07,550,33.07Z" transform="translate(-252 -18.09)" style="fill:#232323"/><path d="M550,183.31a132.78,132.78,0,1,1-93.89,38.89A131.94,131.94,0,0,1,550,183.31m0-32.94A165.72,165.72,0,1,0,715.72,316.09,165.72,165.72,0,0,0,550,150.37Z" transform="translate(-252 -18.09)" style="fill:#212121"/><circle cx="298" cy="298" r="99.83" style="fill:#1e1e1e"/><circle cx="240.07" cy="298" r="20.96" style="fill:#f7f7f7"/><circle cx="248.06" cy="298" r="5.99" style="fill:#fff"/><g style="clip-path:url(#clip-path-2)"><rect x="49.35" y="577.69" width="19.69" height="133.28" style="fill:#fff"/><rect x="69.04" y="577.69" width="2.34" height="133.28" style="fill:#fff"/><rect x="71.38" y="577.69" width="2.34" height="133.28" style="fill:#fffffe"/><rect x="73.71" y="577.69" width="2.34" height="133.28" style="fill:#fffefd"/><rect x="76.05" y="577.69" width="2.34" height="133.28" style="fill:#fffefc"/><rect x="78.39" y="577.69" width="2.34" height="133.28" style="fill:#fffdfb"/><rect x="80.72" y="577.69" width="2.34" height="133.28" style="fill:#fffdfa"/><rect x="83.06" y="577.69" width="2.34" height="133.28" style="fill:#fffdf9"/><rect x="85.39" y="577.69" width="2.34" height="133.28" style="fill:#fffcf8"/><rect x="87.73" y="577.69" width="2.34" height="133.28" style="fill:#fffcf7"/><rect x="90.07" y="577.69" width="2.34" height="133.28" style="fill:#fffbf6"/><rect x="92.4" y="577.69" width="2.34" height="133.28" style="fill:#fffbf5"/><rect x="94.74" y="577.69" width="2.34" height="133.28" style="fill:#fffbf4"/><rect x="97.08" y="577.69" width="2.34" height="133.28" style="fill:#fffaf3"/><rect x="99.41" y="577.69" width="2.34" height="133.28" style="fill:#fffaf2"/><rect x="101.75" y="577.69" width="2.34" height="133.28" style="fill:#fff9f1"/><rect x="104.08" y="577.69" width="2.34" height="133.28" style="fill:#fff9f0"/><rect x="106.42" y="577.69" width="2.34" height="133.28" style="fill:#fff9ef"/><rect x="108.76" y="577.69" width="2.34" height="133.28" style="fill:#fff8ee"/><rect x="111.09" y="577.69" width="2.34" height="133.28" style="fill:#fff8ed"/><rect x="113.43" y="577.69" width="2.34" height="133.28" style="fill:#fff7ec"/><rect x="115.76" y="577.69" width="2.34" height="133.28" style="fill:#fff7eb"/><rect x="118.1" y="577.69" width="2.34" height="133.28" style="fill:#fff6ea"/><rect x="120.44" y="577.69" width="2.34" height="133.28" style="fill:#fff6e9"/><rect x="122.77" y="577.69" width="2.34" height="133.28" style="fill:#fff6e8"/><rect x="125.11" y="577.69" width="2.34" height="133.28" style="fill:#fff5e7"/><rect x="127.45" y="577.69" width="2.34" height="133.28" style="fill:#fef5e6"/><rect x="129.78" y="577.69" width="2.34" height="133.28" style="fill:#fef4e5"/><rect x="132.12" y="577.69" width="2.34" height="133.28" style="fill:#fef4e4"/><rect x="134.45" y="577.69" width="2.34" height="133.28" style="fill:#fef4e3"/><rect x="136.79" y="577.69" width="2.34" height="133.28" style="fill:#fef3e2"/><rect x="139.13" y="577.69" width="2.34" height="133.28" style="fill:#fef3e1"/><rect x="141.46" y="577.69" width="2.34" height="133.28" style="fill:#fef2e0"/><rect x="143.8" y="577.69" width="2.34" height="133.28" style="fill:#fef2df"/><rect x="146.13" y="577.69" width="2.34" height="133.28" style="fill:#fef2de"/><rect x="148.47" y="577.69" width="2.34" height="133.28" style="fill:#fef1dd"/><rect x="150.81" y="577.69" width="2.34" height="133.28" style="fill:#fef1dc"/><rect x="153.14" y="577.69" width="2.34" height="133.28" style="fill:#fef0db"/><rect x="155.48" y="577.69" width="2.34" height="133.28" style="fill:#fef0da"/><rect x="157.82" y="577.69" width="2.34" height="133.28" style="fill:#fef0d9"/><rect x="160.15" y="577.69" width="2.34" height="133.28" style="fill:#feefd8"/><rect x="162.49" y="577.69" width="2.34" height="133.28" style="fill:#feefd7"/><rect x="164.82" y="577.69" width="2.34" height="133.28" style="fill:#feeed6"/><rect x="167.16" y="577.69" width="2.34" height="133.28" style="fill:#feeed5"/><rect x="169.5" y="577.69" width="2.34" height="133.28" style="fill:#feeed4"/><rect x="171.83" y="577.69" width="2.34" height="133.28" style="fill:#feedd3"/><rect x="174.17" y="577.69" width="2.34" height="133.28" style="fill:#feedd2"/><rect x="176.5" y="577.69" width="2.34" height="133.28" style="fill:#feecd1"/><rect x="178.84" y="577.69" width="2.34" height="133.28" style="fill:#feecd0"/><rect x="181.18" y="577.69" width="2.34" height="133.28" style="fill:#feeccf"/><rect x="183.51" y="577.69" width="2.34" height="133.28" style="fill:#feebce"/><rect x="185.85" y="577.69" width="2.34" height="133.28" style="fill:#feebcd"/><rect x="188.19" y="577.69" width="2.34" height="133.28" style="fill:#feeacc"/><rect x="190.52" y="577.69" width="2.34" height="133.28" style="fill:#feeacb"/><rect x="192.86" y="577.69" width="2.34" height="133.28" style="fill:#feeaca"/><rect x="195.19" y="577.69" width="2.34" height="133.28" style="fill:#fee9c9"/><rect x="197.53" y="577.69" width="2.34" height="133.28" style="fill:#fee9c8"/><rect x="199.87" y="577.69" width="2.34" height="133.28" style="fill:#fee8c7"/><rect x="202.2" y="577.69" width="2.34" height="133.28" style="fill:#fee8c6"/><rect x="204.54" y="577.69" width="2.34" height="133.28" style="fill:#fee8c5"/><rect x="206.87" y="577.69" width="2.34" height="133.28" style="fill:#fee7c4"/><rect x="209.21" y="577.69" width="2.34" height="133.28" style="fill:#fee7c3"/><rect x="211.55" y="577.69" width="2.34" height="133.28" style="fill:#fee6c2"/><rect x="213.88" y="577.69" width="2.34" height="133.28" style="fill:#fee6c1"/><rect x="216.22" y="577.69" width="2.34" height="133.28" style="fill:#fee5c0"/><rect x="218.56" y="577.69" width="2.34" height="133.28" style="fill:#fee5bf"/><rect x="220.89" y="577.69" width="2.34" height="133.28" style="fill:#fee5be"/><rect x="223.23" y="577.69" width="2.34" height="133.28" style="fill:#fee4bd"/><rect x="225.56" y="577.69" width="2.34" height="133.28" style="fill:#fee4bc"/><rect x="227.9" y="577.69" width="2.34" height="133.28" style="fill:#fee3bb"/><rect x="230.24" y="577.69" width="2.34" height="133.28" style="fill:#fee3ba"/><rect x="232.57" y="577.69" width="2.34" height="133.28" style="fill:#fee3b9"/><rect x="234.91" y="577.69" width="2.34" height="133.28" style="fill:#fee2b8"/><rect x="237.24" y="577.69" width="2.34" height="133.28" style="fill:#fee2b7"/><rect x="239.58" y="577.69" width="2.34" height="133.28" style="fill:#fee1b6"/><rect x="241.92" y="577.69" width="2.34" height="133.28" style="fill:#fde1b5"/><rect x="244.25" y="577.69" width="2.34" height="133.28" style="fill:#fde1b4"/><rect x="246.59" y="577.69" width="2.34" height="133.28" style="fill:#fde0b3"/><rect x="248.93" y="577.69" width="2.34" height="133.28" style="fill:#fde0b2"/><rect x="251.26" y="577.69" width="2.34" height="133.28" style="fill:#fddfb1"/><rect x="253.6" y="577.69" width="2.34" height="133.28" style="fill:#fddfb0"/><rect x="255.93" y="577.69" width="2.34" height="133.28" style="fill:#fddfaf"/><rect x="258.27" y="577.69" width="2.34" height="133.28" style="fill:#fddeae"/><rect x="260.61" y="577.69" width="2.34" height="133.28" style="fill:#fddead"/><rect x="262.94" y="577.69" width="2.34" height="133.28" style="fill:#fdddac"/><rect x="265.28" y="577.69" width="2.34" height="133.28" style="fill:#fdddab"/><rect x="267.61" y="577.69" width="2.34" height="133.28" style="fill:#fdddaa"/><rect x="269.95" y="577.69" width="2.34" height="133.28" style="fill:#fddca9"/><rect x="272.29" y="577.69" width="2.34" height="133.28" style="fill:#fddca8"/><rect x="274.62" y="577.69" width="2.34" height="133.28" style="fill:#fddba7"/><rect x="276.96" y="577.69" width="2.34" height="133.28" style="fill:#fddba6"/><rect x="279.3" y="577.69" width="2.34" height="133.28" style="fill:#fddba5"/><rect x="281.63" y="577.69" width="2.34" height="133.28" style="fill:#fddaa4"/><rect x="283.97" y="577.69" width="2.34" height="133.28" style="fill:#fddaa3"/><rect x="286.3" y="577.69" width="2.34" height="133.28" style="fill:#fdd9a2"/><rect x="288.64" y="577.69" width="2.34" height="133.28" style="fill:#fdd9a1"/><rect x="290.98" y="577.69" width="2.34" height="133.28" style="fill:#fdd9a0"/><rect x="293.31" y="577.69" width="2.34" height="133.28" style="fill:#fdd89f"/><rect x="295.65" y="577.69" width="2.34" height="133.28" style="fill:#fdd89e"/><rect x="297.98" y="577.69" width="2.34" height="133.28" style="fill:#fdd79c"/><rect x="300.32" y="577.69" width="2.34" height="133.28" style="fill:#fdd79b"/><rect x="302.66" y="577.69" width="2.34" height="133.28" style="fill:#fdd69a"/><rect x="304.99" y="577.69" width="2.34" height="133.28" style="fill:#fdd699"/><rect x="307.33" y="577.69" width="2.34" height="133.28" style="fill:#fdd698"/><rect x="309.67" y="577.69" width="2.34" height="133.28" style="fill:#fdd597"/><rect x="312" y="577.69" width="2.34" height="133.28" style="fill:#fdd596"/><rect x="314.34" y="577.69" width="2.34" height="133.28" style="fill:#fdd495"/><rect x="316.67" y="577.69" width="2.34" height="133.28" style="fill:#fdd494"/><rect x="319.01" y="577.69" width="2.34" height="133.28" style="fill:#fdd493"/><rect x="321.35" y="577.69" width="2.34" height="133.28" style="fill:#fdd392"/><rect x="323.68" y="577.69" width="2.34" height="133.28" style="fill:#fdd391"/><rect x="326.02" y="577.69" width="2.34" height="133.28" style="fill:#fdd290"/><rect x="328.35" y="577.69" width="2.34" height="133.28" style="fill:#fdd28f"/><rect x="330.69" y="577.69" width="2.34" height="133.28" style="fill:#fdd28e"/><rect x="333.03" y="577.69" width="2.34" height="133.28" style="fill:#fdd18d"/><rect x="335.36" y="577.69" width="2.34" height="133.28" style="fill:#fdd18c"/><rect x="337.7" y="577.69" width="2.34" height="133.28" style="fill:#fdd08b"/><rect x="340.04" y="577.69" width="2.34" height="133.28" style="fill:#fdd08a"/><rect x="342.37" y="577.69" width="2.34" height="133.28" style="fill:#fdd089"/><rect x="344.71" y="577.69" width="2.34" height="133.28" style="fill:#fdcf88"/><rect x="347.04" y="577.69" width="2.34" height="133.28" style="fill:#fdcf87"/><rect x="349.38" y="577.69" width="2.34" height="133.28" style="fill:#fdce86"/><rect x="351.72" y="577.69" width="2.34" height="133.28" style="fill:#fdce85"/><rect x="354.05" y="577.69" width="2.34" height="133.28" style="fill:#fcce84"/><rect x="356.39" y="577.69" width="2.34" height="133.28" style="fill:#fccd83"/><rect x="358.72" y="577.69" width="2.34" height="133.28" style="fill:#fccd82"/><rect x="361.06" y="577.69" width="2.34" height="133.28" style="fill:#fccc81"/><rect x="363.4" y="577.69" width="2.34" height="133.28" style="fill:#fccc80"/><rect x="365.73" y="577.69" width="2.34" height="133.28" style="fill:#fccc7f"/><rect x="368.07" y="577.69" width="2.34" height="133.28" style="fill:#fccb7e"/><rect x="370.41" y="577.69" width="2.34" height="133.28" style="fill:#fccb7d"/><rect x="372.74" y="577.69" width="2.34" height="133.28" style="fill:#fcca7c"/><rect x="375.08" y="577.69" width="2.34" height="133.28" style="fill:#fcca7b"/><rect x="377.41" y="577.69" width="2.34" height="133.28" style="fill:#fcca7a"/><rect x="379.75" y="577.69" width="2.34" height="133.28" style="fill:#fcc979"/><rect x="382.09" y="577.69" width="2.34" height="133.28" style="fill:#fcc978"/><rect x="384.42" y="577.69" width="2.34" height="133.28" style="fill:#fcc877"/><rect x="386.76" y="577.69" width="2.34" height="133.28" style="fill:#fcc876"/><rect x="389.09" y="577.69" width="2.34" height="133.28" style="fill:#fcc775"/><rect x="391.43" y="577.69" width="2.34" height="133.28" style="fill:#fcc774"/><rect x="393.77" y="577.69" width="2.34" height="133.28" style="fill:#fcc773"/><rect x="396.1" y="577.69" width="2.34" height="133.28" style="fill:#fcc672"/><rect x="398.44" y="577.69" width="2.34" height="133.28" style="fill:#fcc671"/><rect x="400.78" y="577.69" width="2.34" height="133.28" style="fill:#fcc570"/><rect x="403.11" y="577.69" width="2.34" height="133.28" style="fill:#fcc56f"/><rect x="405.45" y="577.69" width="2.34" height="133.28" style="fill:#fcc56e"/><rect x="407.78" y="577.69" width="2.34" height="133.28" style="fill:#fcc46d"/><rect x="410.12" y="577.69" width="2.34" height="133.28" style="fill:#fcc46c"/><rect x="412.46" y="577.69" width="2.34" height="133.28" style="fill:#fcc36b"/><rect x="414.79" y="577.69" width="2.34" height="133.28" style="fill:#fcc36a"/><rect x="417.13" y="577.69" width="2.34" height="133.28" style="fill:#fcc369"/><rect x="419.46" y="577.69" width="2.34" height="133.28" style="fill:#fcc268"/><rect x="421.8" y="577.69" width="2.34" height="133.28" style="fill:#fcc267"/><rect x="424.14" y="577.69" width="2.34" height="133.28" style="fill:#fcc166"/><rect x="426.47" y="577.69" width="2.34" height="133.28" style="fill:#fcc165"/><rect x="428.81" y="577.69" width="2.34" height="133.28" style="fill:#fcc164"/><rect x="431.14" y="577.69" width="2.34" height="133.28" style="fill:#fcc063"/><rect x="433.48" y="577.69" width="2.34" height="133.28" style="fill:#fcc062"/><rect x="435.82" y="577.69" width="2.34" height="133.28" style="fill:#fcbf61"/><rect x="438.15" y="577.69" width="2.34" height="133.28" style="fill:#fcbf60"/><rect x="440.49" y="577.69" width="2.34" height="133.28" style="fill:#fcbf5f"/><rect x="442.83" y="577.69" width="2.34" height="133.28" style="fill:#fcbe5e"/><rect x="445.16" y="577.69" width="2.34" height="133.28" style="fill:#fcbe5d"/><rect x="447.5" y="577.69" width="2.34" height="133.28" style="fill:#fcbd5c"/><rect x="449.83" y="577.69" width="2.34" height="133.28" style="fill:#fcbd5b"/><rect x="452.17" y="577.69" width="2.34" height="133.28" style="fill:#fcbd5a"/><rect x="454.51" y="577.69" width="2.34" height="133.28" style="fill:#fcbc59"/><rect x="456.84" y="577.69" width="2.34" height="133.28" style="fill:#fcbc58"/><rect x="459.18" y="577.69" width="2.34" height="133.28" style="fill:#fcbb57"/><rect x="461.51" y="577.69" width="2.34" height="133.28" style="fill:#fcbb56"/><rect x="463.85" y="577.69" width="2.34" height="133.28" style="fill:#fcbb55"/><rect x="466.19" y="577.69" width="2.34" height="133.28" style="fill:#fcba54"/><rect x="468.52" y="577.69" width="2.34" height="133.28" style="fill:#fbba53"/><rect x="470.86" y="577.69" width="2.34" height="133.28" style="fill:#fbb952"/><rect x="473.2" y="577.69" width="2.34" height="133.28" style="fill:#fbb951"/><rect x="475.53" y="577.69" width="2.34" height="133.28" style="fill:#fbb950"/><rect x="477.87" y="577.69" width="2.34" height="133.28" style="fill:#fbb84f"/><rect x="480.2" y="577.69" width="2.34" height="133.28" style="fill:#fbb84e"/><rect x="482.54" y="577.69" width="2.34" height="133.28" style="fill:#fbb74d"/><rect x="484.88" y="577.69" width="2.34" height="133.28" style="fill:#fbb74c"/><rect x="487.21" y="577.69" width="2.34" height="133.28" style="fill:#fbb64b"/><rect x="489.55" y="577.69" width="2.34" height="133.28" style="fill:#fbb64a"/><rect x="491.88" y="577.69" width="2.34" height="133.28" style="fill:#fbb649"/><rect x="494.22" y="577.69" width="2.34" height="133.28" style="fill:#fbb548"/><rect x="496.56" y="577.69" width="2.34" height="133.28" style="fill:#fbb547"/><rect x="498.89" y="577.69" width="2.34" height="133.28" style="fill:#fbb446"/><rect x="501.23" y="577.69" width="2.34" height="133.28" style="fill:#fbb445"/><rect x="503.57" y="577.69" width="2.34" height="133.28" style="fill:#fbb444"/><rect x="505.9" y="577.69" width="2.34" height="133.28" style="fill:#fbb343"/><rect x="508.24" y="577.69" width="2.34" height="133.28" style="fill:#fbb342"/><rect x="510.57" y="577.69" width="2.34" height="133.28" style="fill:#fbb241"/><rect x="512.91" y="577.69" width="2.34" height="133.28" style="fill:#fbb240"/><rect x="515.25" y="577.69" width="2.34" height="133.28" style="fill:#fbb23f"/><rect x="517.58" y="577.69" width="2.34" height="133.28" style="fill:#fbb13e"/><rect x="519.92" y="577.69" width="2.34" height="133.28" style="fill:#fbb13d"/><rect x="522.25" y="577.69" width="2.34" height="133.28" style="fill:#fbb03c"/><rect x="524.59" y="577.69" width="2.34" height="133.28" style="fill:#fbb03b"/><rect x="526.93" y="577.69" width="12.6" height="133.28" style="fill:#fbb03b"/></g><path d="M754.47,716.08H347.26l-1-.27c-16.31-4.51-26.68-12.64-30.82-24.15-6.87-19.11,7.11-39.42,7.71-40.27l45.19-66.13,6.22,4.42c75.61,53.82,157.26,70.46,242.69,49.45,64.06-15.75,106.37-48,106.79-48.28l6.13-4.72,4.52,6.28L781.1,657l.32.73c6.19,14.19,6.65,26.73,1.38,37.28-8.08,16.16-26.69,20.73-27.48,20.92Zm-405.15-15H752.57c2.72-.83,12.67-4.4,16.87-12.92C772.52,682,772,674,768,664.38l-41.09-57.17c-14.4,9.82-52.41,33.17-105.46,46.32-39.39,9.76-78.87,11.79-117.33,6-45.76-6.85-90.11-24.78-132-53.33l-36.66,53.67c-2.88,4.15-9.47,17-5.92,26.73C331.91,693.1,338.56,698,349.32,701.1Z" transform="translate(-252 -18.09)" style="fill:#232323"/></svg>