<svg id="Layer_1" data-name="Layer 1" xmlns="http://www.w3.org/2000/svg" xmlns:xlink="http://www.w3.org/1999/xlink" viewBox="0 0 1039.74 709.57"><defs><linearGradient id="linear-gradient" x1="52.69" y1="319.65" x2="987.05" y2="319.65" gradientUnits="userSpaceOnUse"><stop offset="0" stop-color="#fff"/><stop offset="1" stop-color="#fbb03b"/></linearGradient><linearGradient id="linear-gradient-2" x1="44.18" y1="667.37" x2="1055.82" y2="667.37" gradientUnits="userSpaceOnUse"><stop offset="0" stop-color="#fff"/><stop offset="1" stop-color="#fff"/></linearGradient></defs><title>screen</title><rect x="52.69" y="14.05" width="934.36" height="611.21" style="stroke:#000;stroke-miterlimit:10;stroke-width:10px;fill:url(#linear-gradient)"/><path d="M1031.23,653.37H68.77V14h962.46ZM96.88,625.22H1003.1V42.1H96.88Z" transform="translate(-30.13 -14.01)" style="fill:#191919"/><path d="M44.18,625.22s0,84.29,84.31,84.29h843c84.31,0,84.31-84.29,84.31-84.29Z" transform="translate(-30.13 -14.01)" style="stroke:#000;stroke-miterlimit:10;stroke-width:10px;fill:url(#linear-gradient-2)"/><path d="M971.51,723.58h-843c-77.8,0-98.36-64.34-98.36-98.36V611.17H1069.87v14.05C1069.87,659.24,1049.31,723.58,971.51,723.58ZM59.7,639.26c3.92,20.81,18,56.21,68.79,56.21h843c50.74,0,65-35.4,68.79-56.21Z" transform="translate(-30.13 -14.01)" style="fill:#191919"/></svg>